{
	"asset":{
		"generator":"Khronos glTF Blender I/O v3.6.27",
		"version":"2.0"
	},
	"scene":0,
	"scenes":[
		{
			"name":"Scene",
			"nodes":[
				0
			]
		}
	],
	"nodes":[
		{
			"mesh":0,
			"name":"Cube",
			"rotation":[
				-0.31768664717674255,
				0.26651206612586975,
				-0.8313171863555908,
				0.37007901072502136
			],
			"translation":[
				-4.415378570556641,
				2,
				-0.018058806657791138
			]
		}
	],
	"materials":[
		{
			"doubleSided":true,
			"name":"Material",
			"pbrMetallicRoughness":{
				"metallicFactor":0,
				"roughnessFactor":0.5
			}
		}
	],
	"meshes":[
		{
			"name":"Cube",
			"primitives":[
				{
					"attributes":{
						"POSITION":0,
						"NORMAL":1,
						"TEXCOORD_0":2
					},
					"indices":3,
					"material":0
				}
			]
		}
	],
	"accessors":[
		{
			"bufferView":0,
			"componentType":5126,
			"count":10368,
			"max":[
				1,
				1.7163290977478027,
				1
			],
			"min":[
				-1,
				-0.3067872226238251,
				-1
			],
			"type":"VEC3"
		},
		{
			"bufferView":1,
			"componentType":5126,
			"count":10368,
			"type":"VEC3"
		},
		{
			"bufferView":2,
			"componentType":5126,
			"count":10368,
			"type":"VEC2"
		},
		{
			"bufferView":3,
			"componentType":5123,
			"count":15516,
			"type":"SCALAR"
		}
	],
	"bufferViews":[
		{
			"buffer":0,
			"byteLength":124416,
			"byteOffset":0,
			"target":34962
		},
		{
			"buffer":0,
			"byteLength":124416,
			"byteOffset":124416,
			"target":34962
		},
		{
			"buffer":0,
			"byteLength":82944,
			"byteOffset":248832,
			"target":34962
		},
		{
			"buffer":0,
			"byteLength":31032,
			"byteOffset":331776,
			"target":34963
		}
	],
	"buffers":[
		{
			"byteLength":362808,
			"uri":"data:application/octet-stream;base64,"
		}
	]
}
